/* XPM */
static char *downloadGroupImageList[] = {
/* columns rows colors chars-per-pixel */
"272 16 86 1",
"  c black",
". c #800000",
"X c #802000",
"o c #A02000",
"O c #C02000",
"+ c #E02000",
"@ c #804000",
"# c #806000",
"$ c #A06000",
"% c #C04000",
"& c #E06000",
"* c #806040",
"= c #A06040",
"- c #E04040",
"; c #E06040",
": c #208000",
"> c #00A000",
", c #20A000",
"< c #408000",
"1 c #608000",
"2 c #40A000",
"3 c #60A000",
"4 c #408040",
"5 c #608040",
"6 c #40A040",
"7 c #60A040",
"8 c #808000",
"9 c #A08000",
"0 c #80A000",
"q c #A0A000",
"w c #C08000",
"e c #E08000",
"r c #C0A000",
"t c #E0A000",
"y c #80C000",
"u c #A0E000",
"i c #E0C000",
"p c #C0E000",
"a c #E0E000",
"s c #A08040",
"d c #A0A040",
"f c #E08040",
"g c #C0A040",
"h c #E0A040",
"j c #80C040",
"k c #C0C040",
"l c #E0C040",
"z c #C0E040",
"x c #E0E040",
"c c #406080",
"v c #606080",
"b c #0060C0",
"n c #2060C0",
"m c magenta",
"M c #40A080",
"N c #60A080",
"B c #00A0C0",
"V c #20A0C0",
"C c #4080C0",
"Z c #6080C0",
"A c #40A0C0",
"S c #60A0C0",
"D c #40C0C0",
"F c #60C0C0",
"G c #808080",
"H c #80A080",
"J c #A0A0A4",
"K c #E08080",
"L c #C0A080",
"P c #E0A080",
"I c #80C080",
"U c #A0E080",
"Y c #E0C080",
"T c #C0E080",
"R c #E0E080",
"E c #8080C0",
"W c #80A0C0",
"Q c #A0A0C0",
"! c #80C0C0",
"~ c #A0C0C0",
"^ c #A6CAF0",
"/ c #C0C0C0",
"( c #C0DCC0",
") c #FFFBF0",
"_ c gray100",
"` c None",
/* pixels */
"OOOOOOOOOOOOOOOO``YwwwwwwwwwwwY```````````````````YwwwwwwwwwwwY````````````````````````)YwY````````````````````````vv``vv``vv``````````````````````~WWWWWWWW~``````~WWWWWWWW~`````AVVVAAAAWA``````````````````````````````````````````````````````Ywwwwwwwwwwwg`````/H7377H/````",
"OaaaaaaaaaaaaaaO``wR))RYhwhYRRw```JJdwwwwwwwwwY```wR))RYhwhYRRw``````````````````````YssgRsY``````JJdwwwwwwwwwY```hNJtrNJtrNJh```WAbbbbbbbbbbAW````~______Q^Q~`````~______Q^Q~````V_______EDA``````````I,>>>>6(```^WWWWWWWW^`````````)YhrY)```````wR))RYhwhYRRw```(HyyupuuyM!```",
"OaiitttttttttiiO``w)lhwgRRRRRRw```J_w)))))))))w```w)lhwgRRRRRRw`````````````````````#sYRRlt#``````J_w)))))))))w``tRvvRRvvRRvvRt``bDFFFFFFFFFFDb````Q______W_~W~````Q______W_~W~```A_______W^FA`````````>(((((U6```W______W(W^```````(rRRRRr(``````w)lhwgRR)RRRw``(6yppppppu7CW``",
"Oait(_____)(ttiO``wR9R)RRRRRRRw```J_wRRRRRRRRRw```wR9R)RRRRRRRw`^AAAAAAAAAAAAAA^^AAAAAAAAAAAAAA^``J_wRRRRRRRRRw``tllllllllllllt``bVVVVVVVVVVVVb````Q______E^^~W````Q______E^^~W```A_______W^^FA```^DBBBBV!(zhh3```W______W_^W~``````hRRRRRRr``````w)wRR)RRRRRRw``7yppyupppyHN3H`",
"Oiite(____(ettiO``wRwRRRRRRRRR$```J_wRRRRRRRRRw```wRwRRRRRRRRR9`A______________AA______________A``J_wRRRRRRRRRw``deeeeeeeeeeeed``CbbbbbbbbbbbbC```~W~~~^__EEEEE````Q______EEEEE```Z_))))__WEWWE```D^____^VUrRRw```Q______E^^^E`````(hRRRRRRh(`````wRwRRRRRRRRR9`(yppppuyuuyNyu3(",
"Oaitt&(__(&tttlO``9R9RRRRRzRRR8```J_wRRRRRRRRRw```9R9RRRRRRRRR9`A____^SSCS_____AA____^SSCS_____A``J_wRRRRRRRRRw``J)__________)L``J____________J``~^____~^__(((Q````Q_______(((Q``        ^)^^^A```B__YrhrNUkrh3```W______WEEEE`````YhRxxxxRlY`````9R9RRRRRRRRR$`Wypuuupu7NNyppjH",
"oait_Y%((%(_etlo``9R9RRRRxkRRR8```J_9RRRRRxxlR9```9R9RRRRxxxxR$`!A___^__^CS___A^!A___^__^CS___A^``J_9RRRRRxxlR9``J)SSSSS____RrrY`J)_____(::)__J`~^__44__~^____Q````eeeee______Q` PKKPPKKP ))))Z```B__tRRRrUUU(:```W__(__)646/E`````/hRllllRhY`````$R9RRRxRxxxR$`CMupuppySA3+++%+",
"oitte_Y%%Y_eeeho``$R$RxxlljRTR1```J_9RRxxxlllR9```$R$RxxxllllR$``A__SCS__SC^^_A``A__SCS__SC^^_A```J_9RRxxxlllR9``J))))_)))(hhRRr`J))(:((:Uj:)_J`W__)66__(~____Q```eRRRRRe_____Q` P-____-P ))))Z```B__YehtNUUUU:```W)I6I^N66()W``````slRxlRle)`````$R$Rxxxll;Of$`CHyppp3NAA7+f(f+",
"oitte&_)__&eeeho`LsRwYRlll3TTT<```d$$RxllllllR$``LsRwYRl;++;3>>I`C_!CCC!^!C!^_C``C_!CCC!^!C!^_C```d$$RxllllllR$``J)SSSS))YrRRlhY`J)):j::U(U:_)J`Q___))___W____W``eeeeeeeee____W` P--__--P ^))^Z```B___)__BUjUU:```W^N66666(__W`````I3elRRle3I````LsRwYRll;OOiOOKcS3yuu36AA3r+f+*",
"oitt_Y;__%Y_tehoL9RRh#gRll2TUT<```$RRRlllllllR$`L9RRh#gR+))+>((>`C^CCCCCCCCCC^C``C^CCCCCCCCCC^C```$RRRlllllllR$``J)))))RthlhtYL``J):j(UU(U:U)_J`W___::__)W^^^_W`eRRRe^eRRRe^^_W` P-_((_-P ^))^Z```B)^^^^_BUUjU:```E^^N666(^^^E````),UdswwsdU2(``L9RRh$gRlOiOOOiOCSAM6juj3Mj+P+P+",
".ltee_P;;Y_e&&h.*YRllh$R,,2TUT:,``#Rlllllllttl$`#YRllh$R+((+,TU,`C_^!C!^SCCC!^C``C_^!C!^SCCC!^C```#Rlllllllttl$``J))))Yhlhvvv/J``J)(:UUUj:()))J`W(__::__)W~^^^W``eeeeeeeee^^^^W` P--__--P ^))^Z```B^^^^^_BjUUU<```E^^^N6^^^^^E````IjUUj6jjUUjN``*YRllh$R%oOOeOOoWASAA3juj3j+fPf+",
".lee&&)))_&&&&h.#Ylltt#R:jUUjUUj``#Rlllltttttl#`#Ylltt#R&++&0<<I`C)^^CS^^SCS^^C``C)^^CS^^SCS^^C```#Rlllltttttl#``J)))/hhdYv)N)J``J))U:Ij:U()))J`/W))66_(/(/~^^W```eRRRRRe^^^^^W` P-lYYl-P ^))^E```B^^^^^^BUUUU6```E^^^^^^^^^^E````3UUjjjjjjjU2``#Yllth#YoloeieOl/CSAA6jjj2jr+f+K",
".heee&%__%&&&&h.#llttt#xq:UUjUU:``#Yltttttttta#`#llttt#xNbnNtwwY`C_^^SC^^^S^^^C``C_^^SC^^^S^^^C```#Yltttttttta#``J)))(LL/(Nvv)J``J)))(::U())))J``WE////WQWEW^^W````eeeeh^^^^^^W` P--ll--P )))^E```B^^^^^)B<<<6(```E^^^^^^^^^^E````2UUUUUUUUUU<``#llttt#x%ooO;oo.`WCSAMjj62j+P+P+",
".he&&&&%%&&&&&h.*hllll#ltq2UUU2(``#lllllllaiai#`*hllll#lb^^nwRRw`C^^^^SCCS^^^^c``C^^^^SCCS^^^^c```#lllllllaiai#``J())))(+++)>>>``J()))))))))))J```/EWWQ^^^^^^^E````E^^^^^^^^^^E` PKKPKKKP ^_)^E```V^____^V///(````WEEEEEEEEEEW````d,<<<<<<<<<j``*hllll#lt.e.o.e.``WCSMj3AM2+fPf+",
".hhhhhhhhhhhhhh./*@@@@@lllq2U21```d#@@@@@@@@@@d`L*@@@@@hbFFnwRRw`c^^^^^^^^^^^^C``c^^^^^^^^^^^^C```d#@@@@@@@@@@d```JJJJJJ+(+J>(>``JJJJJJJJJJJJJJ````WEEEEEEEEEEW````WEEEEEEEEEEW``        EEEEEE```^VBBBBV^````````)//////////)````)//////////)``L*@@@@@llwo.eo.K``/EcM3SFSAv+f+P",
"................``````L*@@@1<5/```````````````````````L*cbnc$wwP`WccccccccccccW``WccccccccccccW`````````````````````````+++m>>>````````````````````````````````````````````````````````````````````(////(`````````````````````````````````````````````L#@@@X.#L```/JGvccccvG=+Km"
};
