/* XPM */
static char *toolbar_invalid[] = {
/* columns rows colors chars-per-pixel */
"552 24 8 1",
"  c magenta",
". c #A0A0A4",
"X c #A0A0C0",
"o c #A0C0C0",
"O c #C0C0C0",
"+ c #C0DCC0",
"@ c #FFFBF0",
"# c None",
/* pixels */
"########################################################################################################################################################################################################################################################################################################################################################################################################################################################################################################################################################################",
"######################################################################################################################################################OO################################################################################################+OOOOOO+################################################################+OOOOOO+################################################################################################################+OOOOOO############################################################################################OO###########",
"########OOOOOOOO####################################+OOOOO+##+OOOOO+########################################################+OOOOOOOOOOOOOOO+#########O@O########################################################################OOOOOO###############OOOOOOOOOOO+#############+OOOOO+#################+OOOOO+################OOOOOOOOOOO+########+OOOOOOOOOOOOOOOOO+#############################+OOOOOOOOOOOOOOOOOO+########+OOOOOOOOOOOOO##########+OOOOOOOOOO+########################################################################################O++O##########",
"########O@@@@@@O############OOO#####################O+++++O##O+++++O########+OO+########+OO+######+OOOOOOOOOOOOOOOOO+#######O+@@+++OOOOO++++O#########O@@O####################################################################++#O@@@@O#++##########+OOOOOOOOOOOOOO+##########O+@@@@@+O+##############O+@@@@@+O+#############OOOOOOOOOOOOO+#######O+++++++++++++++++O###################OO########O+@@@@@@OOO@@@@@@@+O########O+@+OOOOO++++O#########OOOOOOOOOOOOO+########+OOOOOOOOOOOOOOOO+#####+OOOOOOOOOOOOOO+#########+OOOOOOOOOOOOOOOO+###########+O+@@+O+########",
"########O++++++O############O+OOO###################OOOOOOO##OOOOOOO#######+O++O+######+O++O+#####O+++++++++++++++++O#######O++OOOO++@@@@+++O#####OOOOO@@@OOOOOOOOOOO#############+OO+##################OOOOOOOO#############++++O@@@@O++++########+OOOOOOOOOOOOOOOO+#######+O@@@@@@@@@++###########+O@@@@@@@@@++###########OOOOOOOOOOOO++OO######O+OOOOOOOOOOOOOOO+O#####+OOOO+#+OOOO+#OOOOO+####O@++++++O@O+++++++@O########O@OO++@@@++++O########OOOOOOOOOOOOOOO+#######OOOOOOOOOOOOOOOOOO#####OOOOOOOOOOOOOOOO#########OOOOOOOOOOOOOOOOOO######+OOOOO+@@@@+OOOOO+###",
"########OOOOOOOO############OOOOOOO#################OOOOOOO##OOOOOOO#######OOOOOO+####+OOOOOO#####O+OOOOOOOOOOOOOOO+O#######O+O+@@@+++++++++O#####O@@@@@@@@@@@@@@@@@O############+O@@O+#################O@@@@@@O############++@@+@@@@@@+@@++#######OOOOOOOOOOOOOO+OOO#######O@@++O+O++@@O+##########O@@++O+O++@@O+#########OOOOOOOOOOOOOOOOOO#####O+++++++++++++++++O#####O@@@@O#O@@@@O#OOOO+O####O@+@@@@@O+O@@@@@@+@O########O+O@+++++++++O#######+OOOOOOOOOOOO+OOO+######OOOOOOOOOOOOOOOOOO#####OOOOOOOOOOOOOOOO#########OOOOOOOOOOOOOOOOOO######O++@@@@+OO++@@+++O###",
"########OOOOOOOO############OOOOOOOO+###############OOOOOOO##OOOOOOO#######OOOOOOO+##+OOOOOOO#####O+++++++++++++++++O#######O+O+++++++++++++O#####O@@@@@@@@@@@@@@@@@O###########+O++++O+################O++++++O###########++@@@@@@@@@@@@@@++#####OOOOOOOOOOOOOOOOOOOO#####O@@+O@@@@@O+@@O#########O@@+O@@@@@O+@@O#########OOOOOOOOOOOOOOOOOO#####OOOOOOOOOOOOOOOOOOO#####O++++O#O++++O#OOOOOO####O@+@@@@@O+O@@@@@@+@O########O+O++++++++++O#######OOOOOOOOOOOOOOOOOO######OOOOO@@@@@@@@OOOOO#####OOOO+@@@@@@+OOOO#########OOOOOO+O@@O+OOOOOO######O++++++OOOO++O+++O###",
"########OOOOOOOO############OOOOOOOOOO+#############OOOOOOO##OOOOOOO#######+OOOOOOO++OOOOOOO+#####OOOOOOOOOOOOOOOOOOO#######O+O+++++++++++++O#####O@@OOOOOO@@@@@@@@@O##########+OOOOOOOO+###############OOOOOOOO###########++@@@@@@++@@+++@++#####OOOOOOOOOOOOOOOOOOOO####++@+O@@@@@@@O+@++#######++@+O@@@@@@@O+@++#######+OOOOOOOOOOOOOOOOOO+####O@@@@@@@@@+OOOO+@@O#####O+OO+O#O+OO+O#OOOOOO####O@+@@@@@O+O+@@@@@+@O########O+O++++++++++O######+OOOOOOOOOOOOOOOOOO+#####OOOOOO@@@@@@OOOOOO#####OOOOO@@@@@+OOOOO#########OOOOO+@O@@O@+OOOOO######O++++++O+@OOOOOO+O###",
"##OOOOOOOOOOOOOOOOOOOO######OOOOOOOOOOOO+###########OOOOOOO##OOOOOOO########OOOOOOOOOOOOOOOO######O@@@@@@@@@@@@@@@@@O#######O+O+++++++++++++O#####O@@++++++++@@@@@+@O#########+OOOOOOOOOO+##############OOOOOOOO############O+@@@+OO+O+@+@++#####+OOOOOOOOOOOOOOOOOOOO+###O@@++@@@@@@@+O@@O#######O+@++@@@@@@@+O@@O#######OOOOOOOOOOOOOOOOOOOO####O@@@@@@@++++@@++++O#####O++++O#O++++O#OOOOOO####O@+@@@@+O+OO+@@@@+@O########O+O++++++++++O######OOOOOOOOOOOOOOOOOOOO#####OOOOOOO@@@@OOOOOOO#####OOOOOO@@@+OOOOOO+########OOOO+@+O@@O+@+OOOO######O++OOOOO@@OOOOOO+O###",
"##OOOOOOOOOOOOOOOOOOOO######OOOOOOOOOOOOOO+#########OOOOOOO##OOOOOOO#########OOOOOOOOOOOOOO#######O@@@@@@@@@@@@@@@@@O#######O+O+++++++OOOO++O#####O@@@@@@@@@@+OOOOO@O########+OOOOOOOOOOOO+#############OOOOOOOO##########OOO+@@+O####O+@++OOO###OOOOOOOOOOOOOOOOOOOOOO###O@@O@@@@@@@@@O+@O#######O@@O@@@@@@@@@O+@O#######O+OOOOOOOOOOOOOOOOOO####O@@@@@@+++O+@@+O++O#####+OOOOO#+OOOOO#OOOOOO####O@+@@@@OOOOOOOOOOOOO########O+O++++++OOO+O######OOOOOOOOOOOOOOOOOOOO#####OOOOOOO+@@OOOOOOOO#####OOOO+OO@+OO+@@@@+O+######OOO+@+OO@@OO+@+OOO######O++O+@@@@@@@@+OO+O###",
"##OOOOOOOOOOOOOOOOOOOO######OOOOOOOOOOOOOOOO+#######OOOOOOO##OOOOOOO##########OOOOOOOOOOOO########O@@@@@@@@@@@@@@@@@O#######O+O+++++O+@@@@+OO#####O@@+++++@+O+@@@@+OO#######+OOOOOOOOOOOOOO+######OOOOOOOOOOOOOOOOOOOO####O++@+@O######O++@++O###OOOOOOOOOOOOOOOOOOOOOO###O@@O@@@@@@@+@O+@O#######O@@O@@@@@@@+@O+@O#######O+OOOOOOOOOOOOOOOOOO####O@@@@@++@@@@@@@@@@+O###########+OOO  +OOOOO+####O@+@@@@OOOOOOOOOOOOO#######OO+O+++OOOOOO+O######O+OOOOOOOOOOOOOOOOOO#####OOOOO@@++++@@OOOOO#####OOOO+@+OOO@@@@@@@@O+#####OOO+@OOO@@OOO@+OOO######O++OO+@@@@@@+OOOOO###",
"##OOOOOOOOOOOOOOOOOOOO######OOOOOOOOOOOOOOOOO#######OOOOOOO##OOOOOOO###########OOOOOOOOOO#########O@@@@@@@@@@@@@@++@O#######O+O++++O+++OO+@+O#####O@@@@@@++O+++OO+++OO#####+OOOOOOOOOOOOOOOO+#####OOOOOOOOOOOOOOOOOOOO####O@++@+O######OOOOOOO###O+OOOOOOOOOOOOOOOOOOOO###O@@O@@@@++++@O+@O#######O@@O@@@+++++@O+@O#######O+OOOOOOOOOOOOOOOOOO####O@@@@@O+@@@@@@@++@+O##########OOOOO +OOOOOO#####O@+@@@@OOOOOOOOOOOOO######+O++OO+OOOOOOO+O######O+OOOOOOOOOOOOOOOOOO#####OOOOOO@@++@@OOOOOO#####OOOOO+@@O@@@@OO@@@@O#####OOO@+OOO@@OOO@@OOO######OO+OOO@@@@@@OOOOOO###",
"##OOOOOOOOOOOOOOOOOOOO######OOOOOOOOOOOOOOOO+#######OOOOOOO##OOOOOOO###########OOOOOOOOOO#########O@@@@@@@@@OOO++++@O######+O+O+++O++O@@@+O@++####O@@+++++O+++O@@O+++O####+OOOOOOOOOOOOOOOOOO+####+OOOOOOOOOOOOOOOOOO+####O@++@+O######O+@@@+O###O+OOOOOOOOOOOOOOOOOOOO###O+@O+@+++++@+O+@O#######O+@O+@+++++@+O@@O#######OO+OOOOOOOOOOOOOOOOO####O@@@@++O@@@+OO+@+@O+#########OOOOOOOOOOOOOO#####O@+@@@@@OOOO@@@@@+@O######O++OOOO+OOOOOO+O######O+OOOOOOOOOOOOOOOOOO#####OOOOOOO@@@@OOOOOOO#####OOOOOO+++@@@@OO@@@@++####OOO@+OOO@@OOO+@OOO######OO+OOO+@@@@@OOO+OO###",
"##OOOOOOOOOOOOOOOOOOOO######OOOOOOOOOOOOOOO+########OOOOOOO##OOOOOOO##########OOOOOOOOOOOO########O@@@@@@@@+OOOOO++@O#####+OO+O+++O@O@@@@@+++O####.@+++++OO+++O@@O+++OO###OOOOOOOOOOOOOOOOOOOO#####+OOOOOOOOOOOOOOOO+#####O@@+++O######OOO+OOO###O+OOOOOOOOOOOOO+@@@+OO###+O@+O+@+++@+O+@+O#######+O@+O+@+++@+O+@+O#######+O+OOOOOOOOOOOOOOOO+####O@@@@OO+@@+O++O+@@+OO#######+OOOOOOOOOOOOO+#####O@+@@@@@@@@@@@@@@+@O######O+OOOOOOOOOOOOOO######OO+OOOOOOOOOOOOOOOOOO####OOOOOOO+@@OOOOOOOO#####OOOO+@+O@@@@@@@@@@@+O####OOO+@OOOOOOOO@+OOO######+O+OOO@@@@@@OOOOO+###",
"##OOOOOOOOOOOOOOOOOOOO######OOOOOOOOOOOOO+##########OOOOOOO##OOOOOOO#########OOOOOOOOOOOOOO#######O@@@@@++++OOOOOOO@O####+O++OOO++O@O@@@@@@O@O####.@+++++O++++OOOO++++O###OOOOOOOOOOOOOOOOOOOO######+OOOOOOOOOOOOOO+######OOO@+@OO####OO+OOO+O###OOOOOOOOOOOOOOOOO+OOOO####O@@+O++@++OO@@OO+#######O@@+O++@++OO@@OO+#######OO+OOOOOOOOOOOOOOO#####O@@++O@@+@O++++O@+@+O#######OOOOOOOOOOOOOO######O@+@@@@@@@@@@@@@@+@O######O+OOOOO@@OOOOOOO######+O+OOOOOOOOOOOOOOOOOO####OOOOO@@++++@@OOOOO#####OOOOO+@O@@@@@OO@@++@O####OOO+@+OOOOOO+@+OOO#######O+OOO@+OO+@OOOOO####",
"########OOOOOOOO############OOOOOOOOOOO+############OOOOOOO##OOOOOOO########.OOOOOOO.OOOOOOO######O@@+++++++OOOOOOOOO####O++OOOOOOO@O@@+++@O@O####.@+++++O+OOOO@@OOOO+O#########OOOOOOOO#############+OOOOOOOOOOOO+#########O++++OOOOOOO++O++O###+O+OOOOOOOOOOOO+OOO+O+####OO@@+OOOOO++@OOOO+######OO@@+OOOOO++@OOOO+######+O+OOOOO@@OOOOOOOO#####O@+++O@@+@O++++O++++O#######OOOOOOOOOOOOO#######O@++++++++++++++++@O######OO++OOO@@OOOOOOO#######O+OOOOOOOOOOOOOOOOOO####OOOOOO@@++@@OOOOOO#####OOOOOO+O@@@@@OO@+++@O####OOOO+@+OOOO+@+OOOO#######OOOOOOOOOOOOOOOO####",
"########OOOOOOOO############OOOOOOOOO+##############OOOOOOO##OOOOOOO#######OOOOOOOO##.OOOOOOO#####O@++++++++OOOOOOOOOO+##O+OOOOOOOO@O+@++@+O+O####.@+++++OOOOOO@@OOOOOO#########OOOOOOOO##############+OOOOOOOOOO+#########OO++++++++++OOO@OO+####O+OOOOOOOOOOOO++O++O######OO@@+++++@@OO++OO####OOOOOOOOOOOO+@OO+OOO#######OO++OOO@@OOOOOOO######O+@@@OO+@@OO++O++++OO#######OOOOOOOOOOOO########O+@@@@@@@++@@@@@@@+O######+OOOOOO@@OOOOOOO#######+O+OOOOOOOOOOOOOOOOO####OOOOOOO@@@@OOOOOOO#####OOOOOOOO+@@@@OO@++@+O####OOOOO+@@++@@+OOOOO#######+O+OOOOOOOOOOOO+####",
"########OOOOOOO.############OOOOOOO+################OOOOOOO##OOOOOO.#######.OOOOOO####.OOOOO.#####O+@@@@@@@+OOOOOOOOOOO##O+OOOOOOOOO+O+@@+O+OO+###.@+++++OOOOOO@@OOOOOO#########OOOOOOOO###############+OOOOOOOO+##########OO++++++++++O+OOO+O####OO+OOOOOOOOOOOOO@OOO#######OOO+@@@++OOOO+OOO###O++++++++++O+OOOO+OOO#######OOO+OO@@OOOOOO######+OOOOOOOO++++OO++++OOO########OOOOOOOO+###########OOOOOOO@++@OOOOOOO############OOOOOOOOOOO########OO+OOOOOOOOOOOOOOOO####OOOOOOO+@@OOOOOOOO#####OOOOOOOO+@++@OO@++@O+####OOOOOO++@@++OOOOOO########.OOOOOOOOOOOO.#####",
"########OOOOOOO.############OOOOO+##################OOOOOOO+#OOOOOOO#######OOOOOO######.OOOOO####+OOOOOOOOOOOOOOOOOOOOO##OOOOOOOOOOO++OOOO++OOO+##.+@@@@@OO+OOO@@OOO+OO#########OOOOOOOO################+OOOOOO+############OO++O++++++O++O++O#####OO+OOOOOOOOOO+OOO+O#########OOOOOOOOO+OO+OO###+OO+OOOO+OOOOOO+OO+OO########+OOOOOOOOOOO########++++++O++++++++++++O##########OOOOO+###############+OOOO@+++OOOOO######+OOOOOOOO++++OOOOOOOO+######OO+OOOOOOOOOOOOOOO####OOOOOOOO++OOOOOOOO####OOOOOOOOOO+@+@OO@+@+O#####OOOOOOOOOOOOOOOOOO########+OOOOOOOOOOOO+#####",
"########OOOOOOO.############OOOO+##################+OO...OO++OO...OO+#######OOOOO######O.OOO######+++++OOOOOOOOOOOOOO####OOOOOOOOOOOOO+@@+OO++OO#OO.......oO+OO@@OO+Oo##########OOOOOOOO+###############+OOOOOO+#############OOOOO++++OOOO@OO+#####+OO++OOOOOOOO++O++O#################OO+OOOO####+OOOOOOOO+@@@OO+OOOO###+OOOOOOOO++++OOOOOOOO+#########OO++++++++++OO###########OOOO+###############O@@@@@@@@@@@@O######O+@@@@@@O+OO+O@@@@@@+O######+OOOOOOOOOOOOOOOO+####OOOOOOOOOOOOOOOOOO#####+++OOOOOOO+@@@@@@+O+#####.OOOOOOOOOOOOOOOO.#########OOOOOOOOOOOO######",
"####+OOOOO.....OOOO+######+OOOOOOO###################+++++####+++++########+OOOOOOO+#OOOOOOO+###############OOOOOOO#######OOOOOOOOOOOOOOOOOO+++O###OOOOOOOOOO+OOOO+OOO########+OOO.....OO+############+OOOOOOOOOO+############OO+O++++O+OOOO+########OOOOOOOOO+OOO@OO+###############+++OO++OO#####+OOOOOO++++++OO+OOO###O+@@@@@@O+OO+O@@@@@@+O##########OO+O++++O+OO###########OOOOOOO+############+OOOOOOOOOOOOOO+#####O+++++++OOOOOO+++++++O####+OOOOOOOOOOOOOOOOOO####OOOOOOOOOOOOOOOOOOOO#############OOO+@@+OO+#####+O................OO#########OOOOOOOOOO#######",
"######++++++++++++##########+++++###########################################+++++++###++++++################OOOOO+#######++OOOOOOOOOOOOOOOOOO+OO###########OoO++++OoO#############+++++###################+++++#############++OOOOOOOOOOOOOOOO+######+OOOOO+++OOOOOOO###########+++OOOOOOOOOOO+#####OOOOOOOOOOOOOOOOOO+##O+++++++OOOOOO+++++++O###########OOOO++OOOO#############++++++#############++++++OOOOO+++++#####OOOOOOOOOOOOOOOOOOOOOO######+++++OOOOOOOOOOO+#####+++OOOOOOOOOOOO+++##############OOOOOOOOOO#######++++++OOOOO++++++###########O.OOOOOO+#######",
"###########################################################################################################+OOOOOO+######+++++++OOOOOOOOOOOOOOO+#############OOXXOO###########################################################++++++++++OOO+++#####+OOOOOOOOOOOOOOOOO+###################++++#######OOOOOOO+#####++++###+OOOOOOOOOOOOOOOOOOOOOO##########+OOOOOOOOOO+####################################################++++++++OOOOOO+++++++#############OOOOOOOOOOO########################################++++####################################OOOOO..OOOOO+#####",
"#####################################################################################################################################################################################################################################################+++++OOOOO+++++#################################++++++##############++++++++OOOOOO+++++++############++++++++++########################################################################################+++OOO+++###################################################################################++++O+++########"
};
