/* XPM */
static char *jingxian_16[] = {
/* columns rows colors chars-per-pixel */
"16 16 116 2",
"   c #1D0000",
".  c #1F0B0B",
"X  c #251314",
"o  c #2F1514",
"O  c #231718",
"+  c #231818",
"@  c #221B1B",
"#  c #231B1C",
"$  c #231C1C",
"%  c #231C1D",
"&  c #2A1A1B",
"*  c #231F20",
"=  c #2A2526",
"-  c #2C2627",
";  c #2F2729",
":  c #3F2425",
">  c #312A2B",
",  c #322A2C",
"<  c #342B2D",
"1  c #342C2E",
"2  c #362E2F",
"3  c #403234",
"4  c #433235",
"5  c #403437",
"6  c #413437",
"7  c #423638",
"8  c #593A3D",
"9  c #603236",
"0  c #644A4F",
"q  c #734248",
"w  c #6C5157",
"e  c #7A545A",
"r  c #715B5D",
"t  c #7C5B62",
"y  c #855358",
"u  c #815F67",
"i  c #825E66",
"p  c #835F67",
"a  c #836068",
"s  c #846168",
"d  c #81686A",
"f  c #936A72",
"g  c #926B73",
"h  c #9C6870",
"j  c #9B6B74",
"k  c #986C75",
"l  c #9B6F79",
"z  c #A3646B",
"x  c #AB626E",
"c  c #A46570",
"v  c #B46F78",
"b  c #A1747E",
"n  c #AA7079",
"m  c #B4717B",
"M  c #BB737D",
"N  c #A57580",
"B  c #A77882",
"V  c #A97983",
"C  c #AC7982",
"Z  c #BB7680",
"A  c #BD7882",
"S  c #B97E8B",
"D  c #C07580",
"F  c #C27481",
"G  c #C47A85",
"H  c #C37E89",
"J  c #C47E88",
"K  c #B4808B",
"L  c #BE8692",
"P  c #B58C90",
"I  c #B88C92",
"U  c #BF8A94",
"Y  c #C4818F",
"T  c #C8818B",
"R  c #CA828D",
"E  c #CD8692",
"W  c #C08894",
"Q  c #C68F9A",
"!  c #DE8494",
"~  c #D08995",
"^  c #D08A96",
"/  c #D38A97",
"(  c #D88F9C",
")  c #C6909A",
"_  c #C8999B",
"`  c #D0929F",
"'  c #D7919E",
"]  c #D193A0",
"[  c #D696A4",
"{  c #DE95A3",
"}  c #DA99A7",
"|  c #DC9AA8",
" . c #E096A4",
".. c #E49AA8",
"X. c #E49BA9",
"o. c #E69CAB",
"O. c #E99EAD",
"+. c #EA9FAD",
"@. c #F69AAD",
"#. c #E5A0AF",
"$. c #EFA3B2",
"%. c #EDA5B4",
"&. c #EEA5B5",
"*. c #F7A3B5",
"=. c #F3A5B4",
"-. c #F4A7B7",
";. c #F1A8B7",
":. c #F3A8B9",
">. c #F6A9BA",
",. c #F6AABA",
"<. c #F7AABA",
"1. c #F7AABB",
"2. c #F8ABBB",
"3. c #F8ABBC",
"4. c #F8ACBD",
"5. c None",
/* pixels */
"5.5.X 9 q 3 5.5.5.5.5.5.5.5.5.5.",
"5.5.5.O x c 0 i u w 1 5.5.5.5.5.",
"5.5.5.= k %.,.,.E G / g = 5.5.5.",
"5.5.; Y L ;.[ ..v ! F ,.W - 5.5.",
"5.* N C P I S @.2.M F 2.2.b * 5.",
"5.6 %.d _ r U *.2.#.{ 2.2.,.6 5.",
"5.u T #.) Q :.O.2.2.2.2.2.2.s 5.",
"* l J 2.2.2./ / 2.2.2.2.2.2.B * ",
"% e m 2.2.-.z =...-.2.2.2.2.B % ",
"5.t 2.2.2.2.( R ( 2.2.2.2.2.s 5.",
"5.7 2.2.2.2.2.2.2. .$.2.4.4.2 5.",
"5.= K 2.2.2.2.2.o.H 2.2.4.C .   ",
"5.5.< ` ,.,.2.2.M 4.2.2.] < 5.5.",
"5.5.o n j } 2.4.A 2.} f , 5.5.5.",
"5.5.# + 5.= 1 4 y h 8 $ 5.5.5.5.",
"5.5.5.5.5.5.5.% & % 5.5.5.5.5.5."
};
