/* XPM */
static char *jinxian[] = {
/* columns rows colors chars-per-pixel */
"22 22 18 1",
"  c #F3DF15",
". c #FFEB07",
"X c #DBC632",
"o c #E7D324",
"O c #B7A25D",
"+ c #9F8A79",
"@ c #9F897A",
"# c #9F8A7A",
"$ c #AB966B",
"% c #CFBA40",
"& c #6F59B3",
"* c #3F28EC",
"= c #4B34DE",
"- c #5740CF",
"; c #634DC1",
": c #937D88",
"> c #877196",
", c None",
/* pixels */
",,,,,,,,,,,,,,,,,,,,,,",
",********************,",
",****************&&=*,",
",**************&#..&*,",
",*************%o...&*,",
",**********=&X....o;*,",
",*********>O......#**,",
",********> ......X-**,",
",*****-&.........$***,",
",****-%..........****,",
",***$X..........:****,",
",*:............o;****,",
",*.............#*****,",
",*............X-*****,",
",*............$******,",
",*##+###......*******,",
",*******.....:*******,",
",*******....o;*******,",
",*******....#********,",
",*******...X==*******,",
",********************,",
",,,,,,,,,,,,,,,,,,,,,,"
};
